<?xml version="1.0" standalone="no"?>
<!DOCTYPE svg PUBLIC "-//W3C//DTD SVG 20010904//EN"
 "http://www.w3.org/TR/2001/REC-SVG-20010904/DTD/svg10.dtd">
<svg version="1.0" xmlns="http://www.w3.org/2000/svg"
 width="700.000000pt" height="700.000000pt" viewBox="0 0 700.000000 700.000000"
 preserveAspectRatio="xMidYMid meet">
<metadata>
Created by potrace 1.14, written by Peter Selinger 2001-2017
</metadata>
<g transform="translate(0.000000,700.000000) scale(0.100000,-0.100000)"
fill="#000000" stroke="none">
<path d="M2074 6981 c-60 -27 -90 -57 -114 -113 -27 -62 -25 -128 6 -184 21
-40 638 -970 655 -988 11 -12 1748 -11 1759 0 4 5 156 232 338 506 349 524
355 535 338 620 -11 56 -54 116 -104 145 l-47 28 -1395 2 c-1346 3 -1396 2
-1436 -16z"/>
<path d="M2480 5155 c-80 -52 -152 -98 -160 -103 -8 -4 -41 -25 -74 -47 -32
-22 -66 -45 -75 -50 -190 -118 -571 -410 -776 -595 -71 -64 -312 -305 -370
-371 -387 -436 -639 -861 -825 -1399 -55 -158 -133 -486 -154 -647 -3 -24 -8
-62 -12 -85 -3 -24 -7 -56 -9 -73 -12 -86 -20 -250 -20 -420 0 -223 7 -282 49
-423 97 -320 313 -597 595 -762 68 -39 232 -111 286 -125 17 -5 35 -9 40 -11
156 -41 20 -39 2500 -39 1282 0 2357 3 2390 7 264 31 548 172 746 370 212 213
325 439 379 763 8 47 5 477 -4 539 -3 16 -7 57 -10 90 -4 34 -8 71 -10 81 -2
11 -7 45 -11 75 -4 30 -9 64 -11 75 -2 10 -6 37 -10 59 -3 22 -7 43 -9 46 -2
3 -6 23 -9 45 -24 149 -139 528 -212 692 -7 18 -21 50 -30 71 -18 41 -140 288
-154 312 -35 57 -90 153 -90 155 0 16 -252 366 -330 459 -121 143 -173 200
-300 326 -155 154 -207 203 -310 290 -36 30 -67 57 -70 60 -13 14 -196 156
-300 232 -135 99 -558 383 -711 476 l-36 22 -874 0 -874 0 -145 -95z m1105
-848 c49 -17 114 -66 139 -105 38 -61 49 -110 50 -228 l1 -113 40 -7 c75 -12
277 -65 305 -79 121 -62 177 -224 121 -350 -41 -94 -149 -165 -250 -165 -20 0
-80 11 -135 25 -54 13 -117 27 -140 31 -22 3 -45 8 -49 11 -21 13 -255 11
-321 -3 -123 -26 -220 -91 -228 -153 -12 -90 63 -137 363 -231 231 -72 363
-118 444 -152 321 -138 491 -355 500 -640 3 -96 -12 -205 -35 -263 -34 -81
-46 -104 -81 -155 -113 -167 -248 -252 -526 -335 -8 -3 -12 -40 -12 -125 -1
-148 -18 -198 -93 -265 -140 -126 -354 -78 -430 95 -16 36 -21 71 -23 170 -1
69 -3 128 -4 132 0 4 -27 12 -58 18 -94 20 -431 136 -473 164 -42 28 -90 92
-108 143 -6 18 -10 60 -8 95 3 82 41 156 105 202 94 67 175 71 331 17 278 -95
396 -123 520 -122 154 1 285 50 330 124 22 36 26 97 9 130 -17 31 -46 54 -119
91 -62 32 -123 53 -487 170 -259 83 -398 158 -519 281 -69 71 -130 174 -149
250 -4 17 -9 39 -12 50 -10 40 -11 201 -1 255 13 71 63 193 104 251 106 152
287 271 487 320 26 6 48 14 48 18 1 3 3 51 4 106 1 55 5 118 9 140 16 83 97
174 181 202 39 13 131 13 170 0z"/>
</g>
</svg>
